<svg width="17" height="17" viewBox="0 0 17 17" fill="none" xmlns="http://www.w3.org/2000/svg">
<path opacity="0.5" d="M16.4167 10.0833V8.34008C16.4167 6.25641 16.4167 5.21379 15.8071 4.53691C15.7512 4.47443 15.692 4.41497 15.6298 4.35879C14.9529 3.74999 13.9103 3.74999 11.8266 3.74999H11.5305C10.6177 3.74999 10.1609 3.74999 9.73501 3.62887C9.50128 3.56206 9.27602 3.46855 9.06368 3.3502C8.67734 3.13566 8.35434 2.81187 7.70834 2.16666L7.27293 1.73124C7.05601 1.51433 6.94834 1.40666 6.83434 1.31166C6.34404 0.905251 5.74258 0.656117 5.10851 0.596787C4.96126 0.583328 4.80768 0.583328 4.50209 0.583328C3.80305 0.583328 3.45393 0.583328 3.16259 0.638745C2.53705 0.75688 1.96163 1.06081 1.51142 1.51089C1.0612 1.96096 0.757092 2.53628 0.63876 3.16179C0.583343 3.45391 0.583344 3.80383 0.583344 4.50208V10.0833C0.583344 13.0687 0.583343 14.5618 1.51118 15.4888C2.43822 16.4167 3.9313 16.4167 6.91668 16.4167H10.0833C13.0687 16.4167 14.5618 16.4167 15.4888 15.4888C16.4167 14.5618 16.4167 13.0687 16.4167 10.0833Z" fill="#C4C4C4"/>
<path d="M8.69794 6.91666C8.69794 6.75918 8.76049 6.60816 8.87184 6.49681C8.98319 6.38546 9.13421 6.32291 9.29169 6.32291H13.25C13.4075 6.32291 13.5585 6.38546 13.6699 6.49681C13.7812 6.60816 13.8438 6.75918 13.8438 6.91666C13.8438 7.07413 13.7812 7.22515 13.6699 7.3365C13.5585 7.44785 13.4075 7.51041 13.25 7.51041H9.29169C9.13421 7.51041 8.98319 7.44785 8.87184 7.3365C8.76049 7.22515 8.69794 7.07413 8.69794 6.91666Z" fill="#2D2D28"/>
</svg>
